<mxfile host="app.diagrams.net" modified="2025-03-31T18:28:00.000Z" agent="Mozilla/5.0" version="21.7.5" etag="pGxDLBJnLZLbCJYYYYYY">
  <diagram name="Authentication Sequence" id="auth-sequence">
    <mxGraphModel dx="1422" dy="762" grid="1" gridSize="10" guides="1" tooltips="1" connect="1" arrows="1" fold="1" page="1" pageScale="1" pageWidth="850" pageHeight="1100" math="0" shadow="0">
      <root>
        <mxCell id="0" />
        <mxCell id="1" parent="0" />
        <mxCell id="2" value="User" style="shape=umlActor;verticalLabelPosition=bottom;verticalAlign=top;html=1;" vertex="1" parent="1">
          <mxGeometry x="80" y="80" width="30" height="60" as="geometry" />
        </mxCell>
        <mxCell id="3" value="Login Page" style="shape=umlLifeline;perimeter=lifelinePerimeter;whiteSpace=wrap;html=1;container=1;collapsible=0;recursiveResize=0;outlineConnect=0;" vertex="1" parent="1">
          <mxGeometry x="200" y="80" width="100" height="500" as="geometry" />
        </mxCell>
        <mxCell id="4" value="Auth Controller" style="shape=umlLifeline;perimeter=lifelinePerimeter;whiteSpace=wrap;html=1;container=1;collapsible=0;recursiveResize=0;outlineConnect=0;" vertex="1" parent="1">
          <mxGeometry x="360" y="80" width="100" height="500" as="geometry" />
        </mxCell>
        <mxCell id="5" value="Auth Service" style="shape=umlLifeline;perimeter=lifelinePerimeter;whiteSpace=wrap;html=1;container=1;collapsible=0;recursiveResize=0;outlineConnect=0;" vertex="1" parent="1">
          <mxGeometry x="520" y="80" width="100" height="500" as="geometry" />
        </mxCell>
        <mxCell id="6" value="Database" style="shape=umlLifeline;perimeter=lifelinePerimeter;whiteSpace=wrap;html=1;container=1;collapsible=0;recursiveResize=0;outlineConnect=0;" vertex="1" parent="1">
          <mxGeometry x="680" y="80" width="100" height="500" as="geometry" />
        </mxCell>
        <mxCell id="7" value="" style="html=1;points=[];perimeter=orthogonalPerimeter;" vertex="1" parent="1">
          <mxGeometry x="90" y="160" width="10" height="400" as="geometry" />
        </mxCell>
        <mxCell id="8" value="" style="html=1;points=[];perimeter=orthogonalPerimeter;" vertex="1" parent="1">
          <mxGeometry x="245" y="170" width="10" height="380" as="geometry" />
        </mxCell>
        <mxCell id="9" value="" style="html=1;points=[];perimeter=orthogonalPerimeter;" vertex="1" parent="1">
          <mxGeometry x="405" y="190" width="10" height="340" as="geometry" />
        </mxCell>
        <mxCell id="10" value="" style="html=1;points=[];perimeter=orthogonalPerimeter;" vertex="1" parent="1">
          <mxGeometry x="565" y="210" width="10" height="300" as="geometry" />
        </mxCell>
        <mxCell id="11" value="" style="html=1;points=[];perimeter=orthogonalPerimeter;" vertex="1" parent="1">
          <mxGeometry x="725" y="230" width="10" height="260" as="geometry" />
        </mxCell>
        <mxCell id="12" value="Navigate to login page" style="html=1;verticalAlign=bottom;endArrow=block;entryX=0;entryY=0;rounded=0;" edge="1" parent="1" source="7" target="8">
          <mxGeometry relative="1" as="geometry">
            <mxPoint x="175" y="170" as="sourcePoint" />
          </mxGeometry>
        </mxCell>
        <mxCell id="13" value="Enter credentials &amp; submit" style="html=1;verticalAlign=bottom;endArrow=block;entryX=0;entryY=0.074;rounded=0;entryDx=0;entryDy=0;entryPerimeter=0;" edge="1" parent="1" source="7" target="9">
          <mxGeometry relative="1" as="geometry">
            <mxPoint x="175" y="215" as="sourcePoint" />
          </mxGeometry>
        </mxCell>
        <mxCell id="14" value="Validate credentials" style="html=1;verticalAlign=bottom;endArrow=block;entryX=0;entryY=0;rounded=0;" edge="1" parent="1" source="9" target="10">
          <mxGeometry relative="1" as="geometry">
            <mxPoint x="490" y="210" as="sourcePoint" />
          </mxGeometry>
        </mxCell>
        <mxCell id="15" value="Query user data" style="html=1;verticalAlign=bottom;endArrow=block;entryX=0;entryY=0;rounded=0;" edge="1" parent="1" source="10" target="11">
          <mxGeometry relative="1" as="geometry">
            <mxPoint x="650" y="230" as="sourcePoint" />
          </mxGeometry>
        </mxCell>
        <mxCell id="16" value="Return user data" style="html=1;verticalAlign=bottom;endArrow=open;dashed=1;endSize=8;exitX=0;exitY=0.154;rounded=0;exitDx=0;exitDy=0;exitPerimeter=0;" edge="1" parent="1" source="11" target="10">
          <mxGeometry relative="1" as="geometry">
            <mxPoint x="650" y="270" as="targetPoint" />
          </mxGeometry>
        </mxCell>
        <mxCell id="17" value="Check user role" style="html=1;verticalAlign=bottom;endArrow=block;rounded=0;" edge="1" parent="1">
          <mxGeometry relative="1" as="geometry">
            <mxPoint x="575" y="300" as="sourcePoint" />
            <mxPoint x="575" y="330" as="targetPoint" />
            <Array as="points">
              <mxPoint x="605" y="300" />
              <mxPoint x="605" y="330" />
            </Array>
          </mxGeometry>
        </mxCell>
        <mxCell id="18" value="Generate JWT token" style="html=1;verticalAlign=bottom;endArrow=block;rounded=0;" edge="1" parent="1">
          <mxGeometry relative="1" as="geometry">
            <mxPoint x="575" y="350" as="sourcePoint" />
            <mxPoint x="575" y="380" as="targetPoint" />
            <Array as="points">
              <mxPoint x="605" y="350" />
              <mxPoint x="605" y="380" />
            </Array>
          </mxGeometry>
        </mxCell>
        <mxCell id="19" value="Return authentication result" style="html=1;verticalAlign=bottom;endArrow=open;dashed=1;endSize=8;rounded=0;" edge="1" parent="1" source="10" target="9">
          <mxGeometry relative="1" as="geometry">
            <mxPoint x="490" y="400" as="targetPoint" />
            <mxPoint x="560" y="400" as="sourcePoint" />
          </mxGeometry>
        </mxCell>
        <mxCell id="20" value="alt" style="shape=umlFrame;whiteSpace=wrap;html=1;width=40;height=20;" vertex="1" parent="1">
          <mxGeometry x="40" y="420" width="750" height="120" as="geometry" />
        </mxCell>
        <mxCell id="21" value="[if user is admin]" style="text;html=1;align=center;verticalAlign=middle;resizable=0;points=[];autosize=1;" vertex="1" parent="1">
          <mxGeometry x="40" y="440" width="100" height="20" as="geometry" />
        </mxCell>
        <mxCell id="22" value="Redirect to admin dashboard" style="html=1;verticalAlign=bottom;endArrow=open;dashed=1;endSize=8;rounded=0;" edge="1" parent="1" source="9" target="7">
          <mxGeometry relative="1" as="geometry">
            <mxPoint x="330" y="450" as="targetPoint" />
            <mxPoint x="400" y="450" as="sourcePoint" />
            <Array as="points">
              <mxPoint x="250" y="450" />
            </Array>
          </mxGeometry>
        </mxCell>
        <mxCell id="23" value="[else if user is member]" style="text;html=1;align=center;verticalAlign=middle;resizable=0;points=[];autosize=1;" vertex="1" parent="1">
          <mxGeometry x="40" y="490" width="140" height="20" as="geometry" />
        </mxCell>
        <mxCell id="24" value="Redirect to member homepage" style="html=1;verticalAlign=bottom;endArrow=open;dashed=1;endSize=8;rounded=0;" edge="1" parent="1">
          <mxGeometry relative="1" as="geometry">
            <mxPoint x="100" y="500" as="targetPoint" />
            <mxPoint x="405" y="500" as="sourcePoint" />
            <Array as="points">
              <mxPoint x="250" y="500" />
            </Array>
          </mxGeometry>
        </mxCell>
        <mxCell id="25" value="Store token in session" style="html=1;verticalAlign=bottom;endArrow=block;rounded=0;" edge="1" parent="1">
          <mxGeometry relative="1" as="geometry">
            <mxPoint x="415" y="410" as="sourcePoint" />
            <mxPoint x="415" y="440" as="targetPoint" />
            <Array as="points">
              <mxPoint x="445" y="410" />
              <mxPoint x="445" y="440" />
            </Array>
          </mxGeometry>
        </mxCell>
      </root>
    </mxGraphModel>
  </diagram>
</mxfile>
